<mxfile host="app.diagrams.net" modified="2023-08-01T09:33:40.087Z" agent="Mozilla/5.0 (Windows NT 10.0; Win64; x64) AppleWebKit/537.36 (KHTML, like Gecko) Chrome/115.0.0.0 Safari/537.36 Edg/115.0.1901.183" etag="T8WDzy48io2i9Ysl0KU-" version="21.6.5" type="github">
  <diagram name="第 1 页" id="y7mgDd_W-GfWIQ72R-hq">
    <mxGraphModel dx="2206" dy="796" grid="1" gridSize="10" guides="1" tooltips="1" connect="1" arrows="1" fold="1" page="1" pageScale="1" pageWidth="827" pageHeight="1169" math="0" shadow="0">
      <root>
        <mxCell id="0" />
        <mxCell id="1" parent="0" />
        <mxCell id="T5tX93PLuEqdihj3-fVP-4" value="" style="edgeStyle=orthogonalEdgeStyle;rounded=0;orthogonalLoop=1;jettySize=auto;html=1;" edge="1" parent="1" source="T5tX93PLuEqdihj3-fVP-1" target="T5tX93PLuEqdihj3-fVP-3">
          <mxGeometry relative="1" as="geometry" />
        </mxCell>
        <mxCell id="T5tX93PLuEqdihj3-fVP-115" value="" style="edgeStyle=orthogonalEdgeStyle;rounded=0;orthogonalLoop=1;jettySize=auto;html=1;" edge="1" parent="1" source="T5tX93PLuEqdihj3-fVP-1" target="T5tX93PLuEqdihj3-fVP-116">
          <mxGeometry relative="1" as="geometry">
            <mxPoint x="617" y="50" as="targetPoint" />
          </mxGeometry>
        </mxCell>
        <mxCell id="T5tX93PLuEqdihj3-fVP-1" value="&lt;font style=&quot;font-size: 13px;&quot;&gt;RawData&amp;nbsp;&lt;/font&gt;" style="rounded=0;whiteSpace=wrap;html=1;fillColor=#ffe6cc;strokeColor=#d79b00;" vertex="1" parent="1">
          <mxGeometry x="357" y="30" width="120" height="40" as="geometry" />
        </mxCell>
        <mxCell id="T5tX93PLuEqdihj3-fVP-8" value="" style="edgeStyle=orthogonalEdgeStyle;rounded=0;orthogonalLoop=1;jettySize=auto;html=1;" edge="1" parent="1" source="T5tX93PLuEqdihj3-fVP-3" target="T5tX93PLuEqdihj3-fVP-7">
          <mxGeometry relative="1" as="geometry" />
        </mxCell>
        <mxCell id="T5tX93PLuEqdihj3-fVP-3" value="&lt;font style=&quot;font-size: 13px;&quot;&gt;CleanData&lt;/font&gt;" style="whiteSpace=wrap;html=1;fillColor=#d5e8d4;strokeColor=#82b366;rounded=0;" vertex="1" parent="1">
          <mxGeometry x="357" y="120" width="120" height="40" as="geometry" />
        </mxCell>
        <mxCell id="T5tX93PLuEqdihj3-fVP-16" value="" style="edgeStyle=orthogonalEdgeStyle;rounded=0;orthogonalLoop=1;jettySize=auto;html=1;" edge="1" parent="1" source="T5tX93PLuEqdihj3-fVP-7" target="T5tX93PLuEqdihj3-fVP-15">
          <mxGeometry relative="1" as="geometry" />
        </mxCell>
        <mxCell id="T5tX93PLuEqdihj3-fVP-7" value="&lt;font style=&quot;font-size: 13px;&quot;&gt;sam&lt;/font&gt;" style="rounded=0;whiteSpace=wrap;html=1;fillColor=#f5f5f5;strokeColor=#666666;fontColor=#333333;" vertex="1" parent="1">
          <mxGeometry x="357" y="210" width="120" height="40" as="geometry" />
        </mxCell>
        <mxCell id="T5tX93PLuEqdihj3-fVP-9" value="&lt;font style=&quot;font-size: 12px;&quot;&gt;bwa mem&lt;/font&gt;" style="ellipse;shape=cloud;whiteSpace=wrap;html=1;" vertex="1" parent="1">
          <mxGeometry x="417" y="167" width="80" height="37" as="geometry" />
        </mxCell>
        <mxCell id="T5tX93PLuEqdihj3-fVP-20" value="" style="edgeStyle=orthogonalEdgeStyle;rounded=0;orthogonalLoop=1;jettySize=auto;html=1;" edge="1" parent="1" source="T5tX93PLuEqdihj3-fVP-15" target="T5tX93PLuEqdihj3-fVP-19">
          <mxGeometry relative="1" as="geometry" />
        </mxCell>
        <mxCell id="T5tX93PLuEqdihj3-fVP-15" value="&lt;font style=&quot;font-size: 13px;&quot;&gt;sort.bam&lt;/font&gt;" style="rounded=0;whiteSpace=wrap;html=1;fillColor=#f5f5f5;strokeColor=#666666;fontColor=#333333;" vertex="1" parent="1">
          <mxGeometry x="357" y="300" width="120" height="40" as="geometry" />
        </mxCell>
        <mxCell id="T5tX93PLuEqdihj3-fVP-17" value="sambamba" style="ellipse;shape=cloud;whiteSpace=wrap;html=1;" vertex="1" parent="1">
          <mxGeometry x="417" y="258" width="80" height="37" as="geometry" />
        </mxCell>
        <mxCell id="T5tX93PLuEqdihj3-fVP-25" value="" style="edgeStyle=orthogonalEdgeStyle;rounded=0;orthogonalLoop=1;jettySize=auto;html=1;" edge="1" parent="1" source="T5tX93PLuEqdihj3-fVP-19" target="T5tX93PLuEqdihj3-fVP-24">
          <mxGeometry relative="1" as="geometry" />
        </mxCell>
        <mxCell id="T5tX93PLuEqdihj3-fVP-19" value="&lt;font style=&quot;font-size: 13px;&quot;&gt;sort.rmdup.bam&lt;/font&gt;" style="whiteSpace=wrap;html=1;fillColor=#f5f5f5;strokeColor=#666666;fontColor=#333333;rounded=0;" vertex="1" parent="1">
          <mxGeometry x="357" y="390" width="120" height="40" as="geometry" />
        </mxCell>
        <mxCell id="T5tX93PLuEqdihj3-fVP-21" value="picard" style="ellipse;shape=cloud;whiteSpace=wrap;html=1;" vertex="1" parent="1">
          <mxGeometry x="417" y="346" width="80" height="37" as="geometry" />
        </mxCell>
        <mxCell id="T5tX93PLuEqdihj3-fVP-51" value="" style="edgeStyle=orthogonalEdgeStyle;rounded=0;orthogonalLoop=1;jettySize=auto;html=1;" edge="1" parent="1" source="T5tX93PLuEqdihj3-fVP-24">
          <mxGeometry relative="1" as="geometry">
            <mxPoint x="417" y="550" as="targetPoint" />
          </mxGeometry>
        </mxCell>
        <mxCell id="T5tX93PLuEqdihj3-fVP-63" value="" style="edgeStyle=orthogonalEdgeStyle;rounded=0;orthogonalLoop=1;jettySize=auto;html=1;entryX=0.496;entryY=0;entryDx=0;entryDy=0;entryPerimeter=0;" edge="1" parent="1" target="T5tX93PLuEqdihj3-fVP-67">
          <mxGeometry relative="1" as="geometry">
            <mxPoint x="451" y="485" as="sourcePoint" />
            <mxPoint x="587" y="545" as="targetPoint" />
            <Array as="points">
              <mxPoint x="451" y="490" />
              <mxPoint x="587" y="490" />
            </Array>
          </mxGeometry>
        </mxCell>
        <mxCell id="T5tX93PLuEqdihj3-fVP-72" value="" style="edgeStyle=orthogonalEdgeStyle;rounded=0;orthogonalLoop=1;jettySize=auto;html=1;" edge="1" parent="1" source="T5tX93PLuEqdihj3-fVP-24">
          <mxGeometry relative="1" as="geometry">
            <mxPoint x="141" y="552" as="targetPoint" />
            <Array as="points">
              <mxPoint x="141" y="490" />
            </Array>
          </mxGeometry>
        </mxCell>
        <mxCell id="T5tX93PLuEqdihj3-fVP-24" value="&lt;font style=&quot;font-size: 12px;&quot;&gt;sort.rmdup.recal.bam&lt;/font&gt;" style="whiteSpace=wrap;html=1;fillColor=#d5e8d4;strokeColor=#82b366;rounded=0;" vertex="1" parent="1">
          <mxGeometry x="357" y="470" width="120" height="40" as="geometry" />
        </mxCell>
        <mxCell id="T5tX93PLuEqdihj3-fVP-40" value="" style="endArrow=classic;html=1;rounded=0;dashed=1;" edge="1" parent="1">
          <mxGeometry width="50" height="50" relative="1" as="geometry">
            <mxPoint x="417" y="448" as="sourcePoint" />
            <mxPoint x="517" y="447.6875" as="targetPoint" />
          </mxGeometry>
        </mxCell>
        <mxCell id="T5tX93PLuEqdihj3-fVP-45" value="SC_misc_MaskBam.py" style="swimlane;whiteSpace=wrap;html=1;" vertex="1" parent="1">
          <mxGeometry x="518" y="398" width="239" height="89" as="geometry">
            <mxRectangle x="518" y="435" width="139" height="30" as="alternateBounds" />
          </mxGeometry>
        </mxCell>
        <mxCell id="T5tX93PLuEqdihj3-fVP-46" value="&lt;font style=&quot;font-size: 11px;&quot;&gt;特殊区域EGFR KRAS PIK3CA热点&lt;br&gt;计算mismatch_read,clip_read,xa_read占比&lt;br style=&quot;font-size: 11px;&quot;&gt;标记bam文件，以上reads比对质量值改为#&lt;br&gt;&lt;/font&gt;" style="text;html=1;align=left;verticalAlign=middle;resizable=0;points=[];autosize=1;strokeColor=none;fillColor=none;" vertex="1" parent="T5tX93PLuEqdihj3-fVP-45">
          <mxGeometry x="5" y="24" width="250" height="60" as="geometry" />
        </mxCell>
        <mxCell id="T5tX93PLuEqdihj3-fVP-67" value="MSI" style="whiteSpace=wrap;html=1;fillColor=#f5f5f5;strokeColor=#666666;fontColor=#333333;rounded=0;" vertex="1" parent="1">
          <mxGeometry x="527.5" y="550" width="120" height="35" as="geometry" />
        </mxCell>
        <mxCell id="T5tX93PLuEqdihj3-fVP-77" value="MSI" style="rounded=0;whiteSpace=wrap;html=1;fillColor=#f8cecc;strokeColor=#b85450;" vertex="1" parent="1">
          <mxGeometry x="213" y="551" width="111" height="38" as="geometry" />
        </mxCell>
        <mxCell id="T5tX93PLuEqdihj3-fVP-79" value="" style="rounded=0;whiteSpace=wrap;html=1;fillColor=#f5f5f5;fontColor=#333333;strokeColor=#666666;" vertex="1" parent="1">
          <mxGeometry x="357" y="550" width="111" height="38" as="geometry" />
        </mxCell>
        <mxCell id="T5tX93PLuEqdihj3-fVP-134" value="" style="edgeStyle=orthogonalEdgeStyle;rounded=0;orthogonalLoop=1;jettySize=auto;html=1;" edge="1" parent="1" source="T5tX93PLuEqdihj3-fVP-80" target="T5tX93PLuEqdihj3-fVP-133">
          <mxGeometry relative="1" as="geometry" />
        </mxCell>
        <mxCell id="T5tX93PLuEqdihj3-fVP-80" value="SNV/Indel" style="rounded=0;whiteSpace=wrap;html=1;fillColor=#f8cecc;strokeColor=#b85450;" vertex="1" parent="1">
          <mxGeometry x="88" y="554" width="111" height="38" as="geometry" />
        </mxCell>
        <mxCell id="T5tX93PLuEqdihj3-fVP-87" value="" style="edgeStyle=orthogonalEdgeStyle;rounded=0;orthogonalLoop=1;jettySize=auto;html=1;" edge="1" parent="1">
          <mxGeometry relative="1" as="geometry">
            <mxPoint x="268" y="490" as="sourcePoint" />
            <mxPoint x="268" y="550" as="targetPoint" />
          </mxGeometry>
        </mxCell>
        <mxCell id="T5tX93PLuEqdihj3-fVP-88" value="&lt;font style=&quot;font-size: 11px;&quot;&gt;msisensor2&lt;br style=&quot;font-size: 11px;&quot;&gt;GSMSI&lt;/font&gt;" style="ellipse;shape=cloud;whiteSpace=wrap;html=1;" vertex="1" parent="1">
          <mxGeometry x="265" y="495" width="80" height="50" as="geometry" />
        </mxCell>
        <mxCell id="T5tX93PLuEqdihj3-fVP-95" value="" style="strokeWidth=1;html=1;shape=mxgraph.flowchart.annotation_2;align=left;labelPosition=right;pointerEvents=1;rotation=90;" vertex="1" parent="1">
          <mxGeometry x="243.5" y="581.25" width="50" height="67.5" as="geometry" />
        </mxCell>
        <mxCell id="T5tX93PLuEqdihj3-fVP-101" value="pair" style="rounded=0;whiteSpace=wrap;html=1;fillColor=#f5f5f5;fontColor=#333333;strokeColor=#666666;" vertex="1" parent="1">
          <mxGeometry x="211" y="640" width="53" height="30" as="geometry" />
        </mxCell>
        <mxCell id="T5tX93PLuEqdihj3-fVP-102" value="single" style="rounded=0;whiteSpace=wrap;html=1;fillColor=#f5f5f5;fontColor=#333333;strokeColor=#666666;" vertex="1" parent="1">
          <mxGeometry x="273" y="640" width="53" height="30" as="geometry" />
        </mxCell>
        <mxCell id="T5tX93PLuEqdihj3-fVP-103" value="mk_msi_pic_data.py" style="swimlane;whiteSpace=wrap;html=1;" vertex="1" parent="1">
          <mxGeometry x="199" y="681" width="163" height="100" as="geometry">
            <mxRectangle x="199" y="681" width="160" height="30" as="alternateBounds" />
          </mxGeometry>
        </mxCell>
        <mxCell id="T5tX93PLuEqdihj3-fVP-104" value="统计有效深度合格位点&lt;br&gt;绘制合格MSI位点的分布图，&lt;br&gt;不稳定位点标红 (somatic)&lt;br&gt;计算MSI score=不稳定/合格" style="text;html=1;align=left;verticalAlign=middle;resizable=0;points=[];autosize=1;strokeColor=none;fillColor=none;" vertex="1" parent="T5tX93PLuEqdihj3-fVP-103">
          <mxGeometry x="4.5" y="25" width="180" height="70" as="geometry" />
        </mxCell>
        <mxCell id="T5tX93PLuEqdihj3-fVP-125" style="edgeStyle=orthogonalEdgeStyle;rounded=0;orthogonalLoop=1;jettySize=auto;html=1;entryX=1;entryY=0.5;entryDx=0;entryDy=0;" edge="1" parent="1" source="T5tX93PLuEqdihj3-fVP-116" target="T5tX93PLuEqdihj3-fVP-3">
          <mxGeometry relative="1" as="geometry">
            <Array as="points">
              <mxPoint x="588" y="140" />
            </Array>
          </mxGeometry>
        </mxCell>
        <mxCell id="T5tX93PLuEqdihj3-fVP-116" value="TempData" style="rounded=1;whiteSpace=wrap;html=1;fillColor=#f5f5f5;fontColor=#333333;strokeColor=#666666;" vertex="1" parent="1">
          <mxGeometry x="542.5" y="30" width="95.5" height="40" as="geometry" />
        </mxCell>
        <mxCell id="T5tX93PLuEqdihj3-fVP-117" value="&lt;font style=&quot;font-size: 12px;&quot;&gt;umi&lt;/font&gt;" style="ellipse;shape=cloud;whiteSpace=wrap;html=1;dashed=1;" vertex="1" parent="1">
          <mxGeometry x="477" y="15" width="61" height="30" as="geometry" />
        </mxCell>
        <mxCell id="T5tX93PLuEqdihj3-fVP-127" value="&lt;b&gt;umi_cutter.py&lt;/b&gt;" style="swimlane;fontStyle=0;childLayout=stackLayout;horizontal=1;startSize=30;horizontalStack=0;resizeParent=1;resizeParentMax=0;resizeLast=0;collapsible=1;marginBottom=0;whiteSpace=wrap;html=1;" vertex="1" parent="1">
          <mxGeometry x="599" y="78" width="140" height="60" as="geometry">
            <mxRectangle x="591" y="78" width="120" height="30" as="alternateBounds" />
          </mxGeometry>
        </mxCell>
        <mxCell id="T5tX93PLuEqdihj3-fVP-128" value="Item 1" style="text;strokeColor=none;fillColor=none;align=left;verticalAlign=middle;spacingLeft=4;spacingRight=4;overflow=hidden;points=[[0,0.5],[1,0.5]];portConstraint=eastwest;rotatable=0;whiteSpace=wrap;html=1;" vertex="1" parent="T5tX93PLuEqdihj3-fVP-127">
          <mxGeometry y="30" width="140" height="30" as="geometry" />
        </mxCell>
        <mxCell id="T5tX93PLuEqdihj3-fVP-137" value="" style="edgeStyle=orthogonalEdgeStyle;rounded=0;orthogonalLoop=1;jettySize=auto;html=1;" edge="1" parent="1" source="T5tX93PLuEqdihj3-fVP-133">
          <mxGeometry relative="1" as="geometry">
            <mxPoint x="143.5999999999999" y="711" as="targetPoint" />
          </mxGeometry>
        </mxCell>
        <mxCell id="T5tX93PLuEqdihj3-fVP-133" value="vcf + strand.vcf" style="whiteSpace=wrap;html=1;fillColor=#f5f5f5;strokeColor=#666666;rounded=0;fontColor=#333333;" vertex="1" parent="1">
          <mxGeometry x="98.5" y="635.5" width="90" height="34.5" as="geometry" />
        </mxCell>
        <mxCell id="T5tX93PLuEqdihj3-fVP-141" value="call.vcf" style="whiteSpace=wrap;html=1;fillColor=#f5f5f5;strokeColor=#666666;rounded=0;fontColor=#333333;" vertex="1" parent="1">
          <mxGeometry x="100" y="711" width="90" height="34.5" as="geometry" />
        </mxCell>
        <mxCell id="T5tX93PLuEqdihj3-fVP-143" value="&lt;font style=&quot;font-size: 12px;&quot;&gt;no umi&lt;/font&gt;" style="ellipse;shape=cloud;whiteSpace=wrap;html=1;dashed=1;" vertex="1" parent="1">
          <mxGeometry x="419" y="79.5" width="61" height="30" as="geometry" />
        </mxCell>
        <mxCell id="T5tX93PLuEqdihj3-fVP-147" value="fastp" style="ellipse;shape=cloud;whiteSpace=wrap;html=1;" vertex="1" parent="1">
          <mxGeometry x="482" y="72.25" width="70" height="46.5" as="geometry" />
        </mxCell>
        <mxCell id="T5tX93PLuEqdihj3-fVP-148" value="" style="endArrow=classic;html=1;rounded=0;dashed=1;" edge="1" parent="1">
          <mxGeometry width="50" height="50" relative="1" as="geometry">
            <mxPoint x="142" y="611.5" as="sourcePoint" />
            <mxPoint x="50" y="612" as="targetPoint" />
          </mxGeometry>
        </mxCell>
        <mxCell id="T5tX93PLuEqdihj3-fVP-150" value="" style="endArrow=classic;html=1;rounded=0;dashed=1;" edge="1" parent="1">
          <mxGeometry width="50" height="50" relative="1" as="geometry">
            <mxPoint x="142" y="690" as="sourcePoint" />
            <mxPoint x="50" y="690.5" as="targetPoint" />
          </mxGeometry>
        </mxCell>
        <mxCell id="T5tX93PLuEqdihj3-fVP-151" value="&lt;font style=&quot;font-size: 11px;&quot;&gt;SC_misc_PatchStrandTag.py&lt;/font&gt;" style="swimlane;whiteSpace=wrap;html=1;" vertex="1" parent="1">
          <mxGeometry x="-143" y="675" width="192" height="65" as="geometry">
            <mxRectangle x="-132" y="674" width="142" height="30" as="alternateBounds" />
          </mxGeometry>
        </mxCell>
        <mxCell id="T5tX93PLuEqdihj3-fVP-152" value="合并2个vcf文件的结果&lt;br&gt;INFO列增加SBR=rdf:rdr:adf:adr" style="text;html=1;align=left;verticalAlign=middle;resizable=0;points=[];autosize=1;strokeColor=none;fillColor=none;" vertex="1" parent="T5tX93PLuEqdihj3-fVP-151">
          <mxGeometry x="3" y="25.5" width="190" height="40" as="geometry" />
        </mxCell>
        <mxCell id="T5tX93PLuEqdihj3-fVP-154" value="NJSH_caller.py" style="swimlane;whiteSpace=wrap;html=1;" vertex="1" parent="1">
          <mxGeometry x="-131" y="542" width="181" height="123.25" as="geometry">
            <mxRectangle x="-120" y="681" width="142" height="30" as="alternateBounds" />
          </mxGeometry>
        </mxCell>
        <mxCell id="T5tX93PLuEqdihj3-fVP-155" value="&lt;font style=&quot;font-size: 11px;&quot;&gt;call 变异软件&lt;br style=&quot;font-size: 11px;&quot;&gt;根据samtools&amp;nbsp;mpileup输出识别&lt;br&gt;snp/indel突变，统计正负链&lt;br style=&quot;font-size: 11px;&quot;&gt;fisher检验计算dp ad的p值&lt;br style=&quot;font-size: 11px;&quot;&gt;阈值 dp=5 ad=2 af=0.01% &lt;br style=&quot;font-size: 11px;&quot;&gt;gt=0.9 pvalue=1&lt;/font&gt;" style="text;html=1;align=left;verticalAlign=middle;resizable=0;points=[];autosize=1;strokeColor=none;fillColor=none;" vertex="1" parent="T5tX93PLuEqdihj3-fVP-154">
          <mxGeometry x="2" y="22.25" width="190" height="100" as="geometry" />
        </mxCell>
      </root>
    </mxGraphModel>
  </diagram>
</mxfile>
